<svg width="256" height="256" viewBox="0 0 256 256" fill="none" xmlns="http://www.w3.org/2000/svg">
<path fill-rule="evenodd" clip-rule="evenodd" d="M208.628 163.721C213.56 158.789 213.56 150.793 208.628 145.86L199.698 136.93L181.837 154.791L190.767 163.721C195.699 168.653 203.696 168.653 208.628 163.721ZM175.884 148.837L158.023 130.977L175.884 113.116L193.744 130.977L175.884 148.837ZM152.07 125.023L169.93 107.163L71.6976 8.93023C66.7656 3.9982 58.7692 3.9982 53.8371 8.93023C48.9051 13.8623 48.9051 21.8587 53.8371 26.7907L152.07 125.023Z" fill="#B8F397"/>
<path fill-rule="evenodd" clip-rule="evenodd" d="M152.07 172.651L214.581 110.14C219.513 105.208 219.513 97.2111 214.581 92.2791C209.649 87.347 201.653 87.347 196.721 92.2791L134.209 154.791L152.07 172.651ZM128.256 160.744L110.395 178.605L128.256 196.465L146.116 178.605L128.256 160.744ZM59.7906 229.209L104.442 184.558L122.302 202.419L77.6511 247.07C72.7191 252.002 64.7227 252.002 59.7906 247.07C54.8586 242.138 54.8586 234.141 59.7906 229.209Z" fill="#B8F397"/>
<path fill-rule="evenodd" clip-rule="evenodd" d="M152.07 77.3953L202.674 26.7907C207.606 21.8587 207.606 13.8623 202.674 8.93025C197.742 3.99822 189.746 3.99822 184.814 8.93025L134.209 59.5349L152.07 77.3953ZM128.256 65.4883L110.395 83.3488L128.256 101.209L146.116 83.3488L128.256 65.4883ZM47.8837 145.86L104.442 89.3023L122.302 107.163L65.7442 163.721C60.8122 168.653 52.8158 168.653 47.8837 163.721C42.9517 158.789 42.9517 150.793 47.8837 145.86Z" fill="#B8F397"/>
<path fill-rule="evenodd" clip-rule="evenodd" d="M196.721 247.07C201.653 242.138 201.653 234.141 196.721 229.209L104.442 136.93L86.5814 154.791L178.86 247.07C183.792 252.002 191.789 252.002 196.721 247.07ZM80.6279 148.837L62.7675 130.977L80.6279 113.116L98.4884 130.977L80.6279 148.837ZM56.814 125.023L74.6744 107.163L59.7907 92.279C54.8586 87.347 46.8622 87.347 41.9302 92.279C36.9982 97.2111 36.9982 105.207 41.9302 110.14L56.814 125.023Z" fill="#B8F397"/>
</svg>
